<svg xmlns="http://www.w3.org/2000/svg" width="37.969" height="27" viewBox="0 0 37.969 27">
  <metadata><?xpacket begin="﻿" id="W5M0MpCehiHzreSzNTczkc9d"?>
<x:xmpmeta xmlns:x="adobe:ns:meta/" x:xmptk="Adobe XMP Core 5.6-c138 79.159824, 2016/09/14-01:09:01">
   <rdf:RDF xmlns:rdf="http://www.w3.org/1999/02/22-rdf-syntax-ns#">
      <rdf:Description rdf:about=""/>
   </rdf:RDF>
</x:xmpmeta>
<?xpacket end="w"?></metadata>
<defs>
    <style>
      .cls-1 {
        fill: #464649;
        fill-rule: evenodd;
        opacity: 0.2;
      }
    </style>
  </defs>
  <path id="Forma_1" data-name="Forma 1" class="cls-1" d="M53.411,2278.37a1.334,1.334,0,0,1,1.915,0,1.381,1.381,0,0,1,0,1.92l-9.711,9.83H77.659A1.338,1.338,0,0,1,79,2291.47a1.358,1.358,0,0,1-1.341,1.38H45.616l9.711,9.81a1.393,1.393,0,0,1,0,1.93,1.317,1.317,0,0,1-1.915,0L41.4,2292.44a1.336,1.336,0,0,1,0-1.91Z" transform="translate(-41.031 -2278)"/>
</svg>
