<svg xmlns="http://www.w3.org/2000/svg" width="19" height="19.969" viewBox="0 0 19 19.969">
  <metadata><?xpacket begin="﻿" id="W5M0MpCehiHzreSzNTczkc9d"?>
<x:xmpmeta xmlns:x="adobe:ns:meta/" x:xmptk="Adobe XMP Core 5.6-c138 79.159824, 2016/09/14-01:09:01        ">
   <rdf:RDF xmlns:rdf="http://www.w3.org/1999/02/22-rdf-syntax-ns#">
      <rdf:Description rdf:about=""/>
   </rdf:RDF>
</x:xmpmeta>
<?xpacket end="w"?></metadata>
<defs>
    <style>
      .cls-1 {
        fill: #e27311;
        fill-rule: evenodd;
      }
    </style>
  </defs>
  <path id="_-e-Forma_1" data-name="-e-Forma 1" class="cls-1" d="M820.477,38.679l-2.654-2.79a1.731,1.731,0,0,0-2.939.7,1.792,1.792,0,0,1-2.085,1.2A8.4,8.4,0,0,1,807.87,32.6a1.823,1.823,0,0,1,1.138-2.193,1.9,1.9,0,0,0,.663-3.09l-2.654-2.79a1.825,1.825,0,0,0-2.559,0l-1.8,1.893c-1.8,1.993.189,7.275,4.644,11.959s9.479,6.877,11.375,4.883l1.8-1.893A2.065,2.065,0,0,0,820.477,38.679Z" transform="translate(-802 -24.031)"/>
</svg>
