<svg xmlns="http://www.w3.org/2000/svg" width="22" height="16" viewBox="0 0 22 16">
  <metadata><?xpacket begin="﻿" id="W5M0MpCehiHzreSzNTczkc9d"?>
<x:xmpmeta xmlns:x="adobe:ns:meta/" x:xmptk="Adobe XMP Core 5.6-c138 79.159824, 2016/09/14-01:09:01        ">
   <rdf:RDF xmlns:rdf="http://www.w3.org/1999/02/22-rdf-syntax-ns#">
      <rdf:Description rdf:about=""/>
   </rdf:RDF>
</x:xmpmeta>
                                                                                                    
                                                                                                    
                                                                                                    
                                                                                                    
                                                                                                    
                                                                                                    
                                                                                                    
                                                                                                    
                                                                                                    
                                                                                                    
                                                                                                    
                                                                                                    
                                                                                                    
                                                                                                    
                                                                                                    
                                                                                                    
                                                                                                    
                                                                                                    
                                                                                                    
                                                                                                    
                           
<?xpacket end="w"?></metadata>
<defs>
    <style>
      .cls-1 {
        fill: #e27311;
        fill-rule: evenodd;
      }
    </style>
  </defs>
  <path class="cls-1" d="M1017.46,27.3c3.02,2.48,8.32,6.842,9.87,8.2a1.018,1.018,0,0,0,.67.277,0.977,0.977,0,0,0,.66-0.275c1.56-1.362,6.86-5.724,9.88-8.2a0.436,0.436,0,0,0,.07-0.613,1.859,1.859,0,0,0-1.44-.685h-18.34a1.859,1.859,0,0,0-1.44.685A0.436,0.436,0,0,0,1017.46,27.3Zm21.27,1.344a0.452,0.452,0,0,0-.48.064c-3.35,2.753-7.63,6.281-8.97,7.456a1.9,1.9,0,0,1-2.56,0c-1.43-1.252-6.23-5.208-8.97-7.455a0.453,0.453,0,0,0-.48-0.064,0.435,0.435,0,0,0-.27.4V40.222A1.806,1.806,0,0,0,1018.83,42h18.34a1.806,1.806,0,0,0,1.83-1.778V29.045A0.435,0.435,0,0,0,1038.73,28.642Z" transform="translate(-1017 -26)"/>
</svg>
